<?xml version="1.0" encoding="UTF-8"?>
<svg version="1.1" xmlns="http://www.w3.org/2000/svg" width="256" height="256" viewBox="0 0 256 256" preserveAspectRatio="xMidYMid meet">
<path d="M0 0 C3.78620816 0.77007624 4.61328934 1.26127624 7.3359375 3.74072266 C8.03662354 4.37665344 8.73730957 5.01258423 9.45922852 5.66778564 C16.05361931 11.82993208 22.52138127 18.1152696 28.95361328 24.44628906 C30.78174397 26.2375241 32.6187553 28.0197387 34.46435547 29.79296875 C37.14389644 32.3692858 39.79295909 34.97376447 42.4375 37.5859375 C43.26548096 38.37060394 44.09346191 39.15527039 44.9465332 39.9637146 C48.3235131 43.35209104 51.19967644 46.2552725 51.81665039 51.14111328 C51.11016119 57.85371581 45.45920032 62.20511212 40.87109375 66.65625 C39.8549975 67.67078827 38.84045872 68.68688858 37.82740784 69.70446777 C35.70499716 71.8266101 33.56802487 73.93247149 31.41870117 76.02734375 C28.67141653 78.70651895 25.95865398 81.41771118 23.2553854 84.14121246 C21.16573778 86.24090838 19.0613633 88.32531147 16.95201302 90.40519714 C15.94618655 91.3995198 14.94432115 92.39786666 13.94662285 93.40034485 C12.54742909 94.80065746 11.12649737 96.17914586 9.70483398 97.55664062 C8.90319321 98.34445923 8.10155243 99.13227783 7.27561951 99.94396973 C4.03336902 102.20646283 1.60706444 102.56848554 -2.3125 102.75 C-5.26005732 101.40437601 -6.85527272 100.66445456 -8.3125 97.75 C-8.84510623 94.42121103 -9.10344816 91.90765304 -7.13452148 89.02587891 C-1.56811443 82.91286744 4.25541214 77.06929067 10.125 71.25 C11.1532298 70.22679861 12.18122626 69.20336267 13.20898438 68.1796875 C15.69914338 65.70042001 18.19242833 63.22432462 20.6875 60.75 C-23.68923215 59.87723522 -63.61222318 67.81447583 -96.91723633 99.39672852 C-98.39581395 100.83498342 -99.85807029 102.28736187 -101.3125 103.75 C-102.12074219 104.55824219 -102.92898437 105.36648437 -103.76171875 106.19921875 C-110.25091437 113.05081272 -115.37939958 120.74111045 -120.3125 128.75 C-120.67230957 129.32814453 -121.03211914 129.90628906 -121.40283203 130.50195312 C-133.57782279 150.44443916 -139.33233911 173.96849748 -139.90625 197.1640625 C-140.37939703 201.3404949 -141.39841817 204.02504663 -143.3125 207.75 C-146.44192465 209.31471233 -149.92332223 209.44701958 -153.3125 208.75 C-155.5390625 207.34765625 -155.5390625 207.34765625 -157.3125 204.75 C-157.92515785 201.4523197 -157.87940272 198.22042551 -157.8125 194.875 C-157.79328491 193.41429077 -157.79328491 193.41429077 -157.77368164 191.92407227 C-156.73635408 153.6291401 -139.83292965 117.90902356 -113.3125 90.75 C-112.39161801 89.75800364 -111.47236625 88.76449161 -110.5546875 87.76953125 C-81.37879708 56.69348807 -39.2237002 43.62704839 2.31835938 42.30664062 C3.67057081 42.26685525 5.02278438 42.22714255 6.375 42.1875 C7.77019161 42.14417913 9.16537402 42.10056122 10.56054688 42.05664062 C13.9361196 41.95151898 17.31175393 41.84937123 20.6875 41.75 C19.84453369 40.91227051 19.00156738 40.07454102 18.13305664 39.21142578 C15.01269605 36.10913552 11.89562177 33.00356127 8.77954102 29.89697266 C7.42920225 28.55166944 6.07796825 27.20726419 4.72583008 25.86376953 C2.78492173 23.93496072 0.84723265 22.00296869 -1.08984375 20.0703125 C-1.69714828 19.46816925 -2.30445282 18.866026 -2.93016052 18.24563599 C-8.14111558 13.03538313 -8.14111558 13.03538313 -8.6875 8.9375 C-8.3125 5.75 -8.3125 5.75 -6.25 2.875 C-3.3125 0.75 -3.3125 0.75 0 0 Z " fill="#FFFFFF" transform="translate(100,250) rotate(230, 0, 0) scale(-1, 1)" />
</svg>
